<?xml version="1.0" encoding="UTF-8" standalone="no"?>
<!DOCTYPE svg PUBLIC "-//W3C//DTD SVG 20010904//EN"
              "http://www.w3.org/TR/2001/REC-SVG-20010904/DTD/svg10.dtd">

<svg xmlns="http://www.w3.org/2000/svg"
     width="11.1111in" height="8.76389in"
     viewBox="0 0 800 631">
  <path id="body"
        fill="yellow" stroke="none" stroke-width="1"
        d="M 184.00,254.00
           C 161.95,235.06 147.91,211.47 142.00,183.00
             140.36,175.06 139.01,173.33 139.00,165.00
             139.00,165.00 139.00,151.00 139.00,151.00
             139.03,131.50 146.46,110.55 156.45,94.00
             194.87,30.31 282.69,9.55 349.00,38.86
             363.41,45.23 378.45,54.34 390.00,65.09
             398.66,73.15 403.56,80.34 411.00,89.00
             413.54,85.43 418.19,81.27 418.73,77.00
             419.34,72.21 414.34,65.10 419.43,61.01
             420.68,60.00 422.39,59.47 423.99,59.55
             430.88,59.89 432.85,69.55 432.99,75.00
             433.25,86.00 428.49,95.51 418.00,100.00
             418.00,100.00 423.80,115.00 423.80,115.00
             427.76,125.09 430.98,140.15 431.00,151.00
             431.02,164.17 431.50,170.75 428.58,184.00
             420.02,222.82 396.52,249.88 363.00,270.00
             363.00,270.00 398.00,272.83 398.00,272.83
             430.52,275.98 470.38,279.59 502.00,270.57
             515.87,266.61 528.64,260.20 539.00,249.99
             545.31,243.76 551.50,231.31 560.00,230.23
             574.19,228.41 583.36,250.40 587.60,261.00
             597.16,284.88 604.16,309.78 609.20,335.00
             611.59,346.94 614.71,364.00 614.99,376.00
             615.10,380.90 614.62,382.46 614.17,387.00
             611.54,413.24 602.62,435.66 585.33,455.91
             585.33,455.91 575.00,466.00 575.00,466.00
             541.54,499.29 497.68,517.46 452.00,526.60
             440.49,528.90 418.51,531.86 407.00,532.00
             407.00,532.00 378.00,532.00 378.00,532.00
             378.00,532.00 366.00,531.09 366.00,531.09
             323.68,528.13 280.60,516.37 244.00,494.55
             228.49,485.30 214.09,473.25 201.29,460.58
             196.19,455.54 192.28,449.93 188.33,444.00
             176.70,426.55 170.44,408.88 168.91,388.00
             168.63,384.13 167.85,382.20 168.09,378.00
             170.39,337.38 186.99,298.71 223.00,277.00
             211.20,274.23 193.23,261.92 184.00,254.00 Z
           M 203.00,177.66
           C 220.62,179.47 230.89,155.31 217.79,142.21
             212.66,137.08 206.80,136.57 200.00,137.33
             178.23,142.75 180.99,175.40 203.00,177.66 Z" />
  <path id="beak"
        fill="orange" stroke="none" stroke-width="1"
        d="M 100.70,176.00
           C 99.25,172.19 97.30,165.89 100.70,162.43
             103.12,159.64 107.56,159.85 111.00,160.46
             117.65,161.65 130.26,167.65 135.94,171.35
             141.75,175.14 141.46,183.84 143.34,190.00
             143.34,190.00 148.28,204.00 148.28,204.00
             149.11,205.94 151.04,209.87 150.79,211.91
             150.43,214.92 146.37,217.13 144.00,218.55
             138.05,222.11 127.00,228.49 120.02,227.88
             114.64,227.41 113.55,223.81 114.33,219.00
             115.40,212.41 120.78,204.99 125.00,200.00
             115.04,194.41 105.47,186.76 100.70,176.00 Z" />
    <path id="water-blue"
        fill="lightblue" stroke="none" stroke-width="1"
        d="M 569.00,473.95
           C 571.83,473.54 587.27,477.22 591.00,478.13
             608.07,482.28 629.22,488.12 644.00,497.70
             654.43,504.46 661.76,514.60 652.61,525.99
             650.40,528.74 647.90,530.67 645.00,532.64
             639.92,536.09 635.55,538.19 630.00,540.70
             600.28,554.10 548.89,561.88 516.00,565.17
             494.79,567.29 473.33,569.97 452.00,570.00
             452.00,570.00 437.00,571.00 437.00,571.00
             437.00,571.00 363.00,571.00 363.00,571.00
             363.00,571.00 342.00,570.00 342.00,570.00
             342.00,570.00 329.00,569.04 329.00,569.04
             304.57,567.98 280.25,565.32 256.00,562.00
             229.64,558.40 189.88,550.63 166.00,539.69
             156.00,535.11 141.00,526.88 142.11,514.00
             142.94,504.33 155.01,496.63 163.00,492.78
             174.60,487.21 188.55,483.02 201.00,479.73
             204.03,478.94 214.50,476.19 217.00,476.73
             221.50,477.70 232.77,486.95 235.00,491.00
             223.17,493.77 194.30,505.69 210.04,520.90
             212.16,522.94 214.45,524.50 217.00,525.96
             232.58,534.84 264.83,541.32 283.00,543.87
             311.43,547.86 340.29,550.96 369.00,551.00
             369.00,551.00 386.00,552.00 386.00,552.00
             433.14,552.07 475.28,549.58 522.00,542.87
             537.67,540.62 564.00,534.58 578.00,527.74
             583.63,524.99 593.66,519.22 593.57,512.00
             593.50,506.76 587.99,502.29 584.00,499.70
             572.98,492.53 556.83,489.95 551.00,486.00
             555.98,483.11 565.08,474.51 569.00,473.95 Z
           M 659.00,480.00
           C 659.00,480.00 658.00,481.00 658.00,481.00
             658.00,481.00 658.00,480.00 658.00,480.00
             658.00,480.00 659.00,480.00 659.00,480.00 Z
           M 692.00,487.85
           C 710.57,492.85 729.10,498.32 746.00,507.73
             756.44,513.55 769.15,523.37 765.21,537.00
             762.19,547.48 750.18,554.66 741.00,559.25
             719.64,569.92 694.29,576.46 671.00,581.58
             621.03,592.55 569.89,597.61 519.00,601.09
             519.00,601.09 459.00,604.00 459.00,604.00
             459.00,604.00 442.00,605.00 442.00,605.00
             442.00,605.00 357.00,605.00 357.00,605.00
             357.00,605.00 342.00,604.00 342.00,604.00
             342.00,604.00 326.00,604.00 326.00,604.00
             326.00,604.00 316.00,603.04 316.00,603.04
             316.00,603.04 306.00,603.04 306.00,603.04
             306.00,603.04 289.00,602.00 289.00,602.00
             289.00,602.00 279.00,601.09 279.00,601.09
             279.00,601.09 214.00,595.28 214.00,595.28
             170.17,589.87 132.67,584.14 90.00,571.86
             76.07,567.85 57.79,560.88 46.00,552.56
             38.04,546.94 32.58,541.25 33.04,531.00
             33.46,521.57 41.49,514.50 49.00,509.81
             65.27,499.65 84.67,493.92 103.00,488.71
             108.25,487.22 122.21,483.04 127.00,484.00
             112.87,490.97 88.04,506.05 98.95,525.00
             100.56,527.79 102.74,530.51 105.09,532.71
             108.82,536.21 114.57,540.36 119.00,542.99
             145.10,558.45 188.05,567.20 218.00,573.00
             241.76,577.60 265.96,579.84 290.00,582.17
             290.00,582.17 316.00,584.09 316.00,584.09
             316.00,584.09 326.00,585.00 326.00,585.00
             326.00,585.00 330.00,585.00 330.00,585.00
             330.00,585.00 344.00,586.00 344.00,586.00
             344.00,586.00 358.00,586.00 358.00,586.00
             358.00,586.00 374.00,587.00 374.00,587.00
             374.00,587.00 417.00,587.00 417.00,587.00
             417.00,587.00 434.00,586.00 434.00,586.00
             474.51,585.94 540.27,579.70 580.00,571.80
             608.93,566.05 648.98,557.38 674.00,541.94
             685.15,535.05 699.34,523.91 693.87,509.00
             688.29,493.79 668.17,487.49 660.00,481.00
             667.50,481.35 684.19,485.75 692.00,487.85 Z
           M 547.79,519.47
           C 543.94,522.99 535.06,526.66 530.00,528.33
             516.70,532.71 502.79,535.01 489.00,537.25
             489.00,537.25 440.00,542.00 440.00,542.00
             440.00,542.00 422.00,543.00 422.00,543.00
             387.90,543.05 353.82,543.25 320.00,538.58
             301.47,536.02 277.09,532.59 260.00,525.13
             252.88,522.02 242.36,514.73 249.43,506.11
             255.37,498.85 264.35,505.66 271.00,508.69
             288.60,516.73 311.01,523.13 330.00,527.00
             378.17,536.81 432.91,534.46 480.00,520.28
             490.90,517.00 503.68,512.43 514.00,507.69
             514.00,507.69 532.00,498.83 532.00,498.83
             542.13,496.76 558.65,509.54 547.79,519.47 Z" />
  <path id="eye-black"
        fill="black" stroke="black" stroke-width="1"
        d="M 196.22,147.39
           C 203.01,141.09 213.81,144.45 216.03,154.00
             219.08,167.07 203.75,176.65 194.00,164.00
             195.72,164.85 198.04,166.22 200.00,166.16
             209.10,165.85 207.45,151.19 199.02,153.66
             196.25,154.46 193.99,157.94 192.00,160.00
             192.11,155.20 192.45,150.90 196.22,147.39 Z
           M 69.98,421.31" />
<path id="white"
        fill="white" stroke="none" stroke-width="1"
        d="M 207.00,176.67
           C 194.29,178.84 185.51,167.99 186.04,156.00
             186.49,145.84 192.32,139.73 202.00,137.48
             226.95,135.06 230.78,172.61 207.00,176.67 Z
           M 191.80,153.00
           C 189.03,161.98 196.30,172.04 206.00,170.77
             221.00,168.81 221.61,142.80 203.00,143.37
             197.38,144.68 193.59,147.22 191.80,153.00 Z
           M 200.96,165.46
           C 195.25,166.47 190.82,158.03 199.04,153.95
             208.36,153.89 206.94,164.41 200.96,165.46 Z
           M 583.00,459.89
           C 586.00,459.17 601.96,463.13 606.00,464.00
             626.96,468.49 652.53,476.23 671.00,487.01
             680.97,492.83 694.29,501.15 694.96,514.00
             695.81,530.31 678.87,540.47 666.00,546.74
             637.35,560.71 590.85,570.68 559.00,575.27
             512.88,581.92 466.57,585.93 420.00,586.00
             420.00,586.00 403.00,587.00 403.00,587.00
             403.00,587.00 386.00,587.00 386.00,587.00
             386.00,587.00 373.00,586.00 373.00,586.00
             373.00,586.00 349.00,586.00 349.00,586.00
             349.00,586.00 339.00,585.04 339.00,585.04
             339.00,585.04 329.00,585.04 329.00,585.04
             329.00,585.04 319.00,584.09 319.00,584.09
             319.00,584.09 247.00,577.28 247.00,577.28
             217.03,573.34 182.61,567.20 154.00,557.67
             140.35,553.12 127.30,548.49 115.00,540.77
             101.56,532.33 89.50,518.65 100.64,503.00
             102.69,500.12 106.21,496.71 109.00,494.52
             127.42,480.00 154.46,471.76 177.00,466.13
             181.44,465.02 197.41,460.62 201.00,461.69
             204.19,462.64 214.65,472.98 217.00,476.00
             198.23,479.78 172.12,487.11 156.00,497.23
             148.71,501.81 139.25,510.25 142.72,520.00
             146.18,529.72 161.03,537.17 170.00,541.14
             195.52,552.42 229.43,557.77 257.00,562.25
             280.15,566.00 303.66,567.49 327.00,569.09
             327.00,569.09 356.00,571.00 356.00,571.00
             356.00,571.00 381.00,571.00 381.00,571.00
             381.00,571.00 396.00,572.00 396.00,572.00
             396.00,572.00 403.00,572.00 403.00,572.00
             403.00,572.00 418.00,571.00 418.00,571.00
             418.00,571.00 442.00,571.00 442.00,571.00
             442.00,571.00 458.00,570.00 458.00,570.00
             458.00,570.00 472.00,569.09 472.00,569.09
             498.83,567.25 525.35,564.66 552.00,560.73
             576.21,557.16 614.55,548.76 636.00,537.74
             644.11,533.57 658.97,523.76 656.43,513.00
             654.47,504.69 643.18,497.10 636.00,493.32
             623.90,486.95 602.55,480.76 589.00,477.65
             589.00,477.65 569.00,473.00 569.00,473.00
             571.53,469.46 578.86,460.87 583.00,459.89 Z
           M 670.00,482.00
           C 670.00,482.00 669.00,483.00 669.00,483.00
             669.00,483.00 669.00,482.00 669.00,482.00
             669.00,482.00 670.00,482.00 670.00,482.00 Z
           M 683.00,485.00
           C 683.00,485.00 682.00,486.00 682.00,486.00
             682.00,486.00 682.00,485.00 682.00,485.00
             682.00,485.00 683.00,485.00 683.00,485.00 Z
           M 551.00,487.80
           C 553.52,487.45 557.50,488.87 560.00,489.58
             567.60,491.75 572.90,493.69 580.00,497.25
             586.95,500.74 597.55,507.86 592.35,516.96
             588.18,524.26 576.66,528.97 569.00,531.66
             550.56,538.11 524.50,543.07 505.00,545.16
             505.00,545.16 466.00,549.09 466.00,549.09
             466.00,549.09 455.00,550.00 455.00,550.00
             455.00,550.00 438.00,551.00 438.00,551.00
             438.00,551.00 415.00,551.00 415.00,551.00
             415.00,551.00 398.00,551.99 398.00,551.99
             398.00,551.99 386.00,551.00 386.00,551.00
             386.00,551.00 363.00,551.00 363.00,551.00
             363.00,551.00 343.00,550.00 343.00,550.00
             343.00,550.00 333.00,549.09 333.00,549.09
             333.00,549.09 283.00,543.75 283.00,543.75
             264.79,540.78 246.42,537.75 229.00,531.41
             222.45,529.03 212.93,525.21 208.34,519.91
             199.08,509.22 210.82,500.55 220.00,496.31
             223.28,494.79 232.69,490.81 236.00,491.01
             239.91,491.25 252.09,499.08 255.00,502.00
             252.30,504.05 248.66,506.68 247.50,510.00
             245.19,516.61 255.19,522.40 260.00,524.74
             273.49,531.32 295.95,535.19 311.00,537.42
             365.47,545.50 438.55,545.13 493.00,536.73
             505.75,534.76 528.78,529.82 540.00,524.19
             544.73,521.82 553.26,516.35 551.22,510.00
             549.11,503.43 540.08,500.70 535.00,497.00
             538.29,494.81 547.56,488.29 551.00,487.80 Z
           M 695.00,488.00
           C 695.00,488.00 694.00,489.00 694.00,489.00
             694.00,489.00 694.00,488.00 694.00,488.00
             694.00,488.00 695.00,488.00 695.00,488.00 Z
           M 101.00,489.00
           C 101.00,489.00 100.00,490.00 100.00,490.00
             100.00,490.00 100.00,489.00 100.00,489.00
             100.00,489.00 101.00,489.00 101.00,489.00 Z
           M 94.00,491.00
           C 94.00,491.00 93.00,492.00 93.00,492.00
             93.00,492.00 93.00,491.00 93.00,491.00
             93.00,491.00 94.00,491.00 94.00,491.00 Z
           M 718.00,495.00
           C 718.00,495.00 717.00,496.00 717.00,496.00
             717.00,496.00 717.00,495.00 717.00,495.00
             717.00,495.00 718.00,495.00 718.00,495.00 Z
           M 729.00,499.00
           C 729.00,499.00 728.00,500.00 728.00,500.00
             728.00,500.00 728.00,499.00 728.00,499.00
             728.00,499.00 729.00,499.00 729.00,499.00 Z
           M 52.00,508.00
           C 52.00,508.00 51.00,509.00 51.00,509.00
             51.00,509.00 51.00,508.00 51.00,508.00
             51.00,508.00 52.00,508.00 52.00,508.00 Z
           M 38.00,519.00
           C 38.00,519.00 38.00,518.00 38.00,518.00
             38.00,518.00 40.00,516.00 40.00,516.00
             40.00,516.00 38.00,519.00 38.00,519.00 Z
           M 44.00,550.00
           C 44.00,550.00 43.00,551.00 43.00,551.00
             43.00,551.00 43.00,550.00 43.00,550.00
             43.00,550.00 44.00,550.00 44.00,550.00 Z
           M 53.00,556.00
           C 53.00,556.00 52.00,557.00 52.00,557.00
             52.00,557.00 52.00,556.00 52.00,556.00
             52.00,556.00 53.00,556.00 53.00,556.00 Z
           M 65.00,562.00
           C 65.00,562.00 64.00,563.00 64.00,563.00
             64.00,563.00 64.00,562.00 64.00,562.00
             64.00,562.00 65.00,562.00 65.00,562.00 Z
           M 730.00,564.00
           C 730.00,564.00 729.00,565.00 729.00,565.00
             729.00,565.00 729.00,564.00 729.00,564.00
             729.00,564.00 730.00,564.00 730.00,564.00 Z
           M 75.00,566.00
           C 75.00,566.00 74.00,567.00 74.00,567.00
             74.00,567.00 74.00,566.00 74.00,566.00
             74.00,566.00 75.00,566.00 75.00,566.00 Z
           M 722.00,567.00
           C 722.00,567.00 721.00,568.00 721.00,568.00
             721.00,568.00 721.00,567.00 721.00,567.00
             721.00,567.00 722.00,567.00 722.00,567.00 Z
           M 96.00,573.00
           C 96.00,573.00 95.00,574.00 95.00,574.00
             95.00,574.00 95.00,573.00 95.00,573.00
             95.00,573.00 96.00,573.00 96.00,573.00 Z
           M 700.00,574.00
           C 700.00,574.00 699.00,575.00 699.00,575.00
             699.00,575.00 699.00,574.00 699.00,574.00
             699.00,574.00 700.00,574.00 700.00,574.00 Z
           M 667.00,582.00
           C 667.00,582.00 666.00,583.00 666.00,583.00
             666.00,583.00 666.00,582.00 666.00,582.00
             666.00,582.00 667.00,582.00 667.00,582.00 Z
           M 153.00,586.00
           C 153.00,586.00 152.00,587.00 152.00,587.00
             152.00,587.00 152.00,586.00 152.00,586.00
             152.00,586.00 153.00,586.00 153.00,586.00 Z
           M 171.00,589.00
           C 171.00,589.00 170.00,590.00 170.00,590.00
             170.00,590.00 170.00,589.00 170.00,589.00
             170.00,589.00 171.00,589.00 171.00,589.00 Z
           M 608.00,592.00
           C 608.00,592.00 607.00,593.00 607.00,593.00
             607.00,593.00 607.00,592.00 607.00,592.00
             607.00,592.00 608.00,592.00 608.00,592.00 Z
           M 207.00,594.00
           C 207.00,594.00 206.00,595.00 206.00,595.00
             206.00,595.00 206.00,594.00 206.00,594.00
             206.00,594.00 207.00,594.00 207.00,594.00 Z
           M 516.00,601.00
           C 516.00,601.00 515.00,602.00 515.00,602.00
             515.00,602.00 515.00,601.00 515.00,601.00
             515.00,601.00 516.00,601.00 516.00,601.00 Z" />
</svg>
